<?xml version="1.0" encoding="UTF-8"?>
<svg width="20px" height="20px" viewBox="0 0 20 20" version="1.1" xmlns="http://www.w3.org/2000/svg" xmlns:xlink="http://www.w3.org/1999/xlink">
    <!-- Generator: Sketch 53 (72520) - https://sketchapp.com -->
    <title>Shape 2</title>
    <desc>Created with Sketch.</desc>
    <g id="-" stroke="none" stroke-width="1" fill="none" fill-rule="evenodd">
        <g id="Home-Page-1440-Search" transform="translate(-1403.000000, -20.000000)" fill="#540C0C" fill-rule="nonzero">
            <g id="Your-bag-Copy" transform="translate(990.500000, -0.500000)">
                <g id="Close" transform="translate(394.000000, 0.000000)">
                    <g id="Close-icon" transform="translate(0.000000, 0.106602)">
                        <g id="Close" transform="translate(18.500000, 20.393398)">
                            <path d="M11.064511,9.99104042 L19.3344328,1.73850067 C19.6119566,1.45176253 19.6079876,0.995977893 19.3255122,0.714095773 C19.0430369,0.432213653 18.5862931,0.428253008 18.2989515,0.705193972 L10.0290297,8.95773372 L1.75912254,0.70513551 C1.47178096,0.428194547 1.01503713,0.432155192 0.732561786,0.714037312 C0.450086448,0.995919432 0.446117467,1.45170407 0.723641251,1.73844221 L8.99354841,9.99104042 L0.723582666,18.2435802 C0.53321479,18.4270575 0.456867442,18.6987597 0.523884787,18.9542579 C0.590902132,19.2097561 0.790854711,19.4092888 1.04689059,19.4761654 C1.30292647,19.543042 1.5752005,19.466855 1.75906395,19.2768869 L10.0290297,11.0243471 L18.2989369,19.2769015 C18.5862784,19.5538425 19.0430223,19.5498818 19.3254976,19.2679997 C19.6079729,18.9861176 19.6119419,18.5303329 19.3344181,18.2435948 L11.064511,9.99104042 Z" id="Shape-2"></path>
                        </g>
                    </g>
                </g>
            </g>
        </g>
    </g>
</svg>