<?xml version="1.0" encoding="UTF-8"?>
<svg width="18px" height="18px" viewBox="0 0 18 18" version="1.1" xmlns="http://www.w3.org/2000/svg" xmlns:xlink="http://www.w3.org/1999/xlink">
    <!-- Generator: Sketch 53 (72520) - https://sketchapp.com -->
    <title>Shape</title>
    <desc>Created with Sketch.</desc>
    <g id="Symbols" stroke="none" stroke-width="1" fill="none" fill-rule="evenodd">
        <g id="Footer" transform="translate(-656.000000, -390.000000)" fill="#FF5900" fill-rule="nonzero">
            <g id="Social" transform="translate(440.000000, 373.000000)">
                <g id="Insta" transform="translate(201.000000, 1.000000)">
                    <path d="M17.3103887,16 L30.6897961,16 C31.9604082,16 33,16.9407054 33,18.3101802 L33,31.6898198 C33,33.0592946 31.9604082,34 30.6897961,34 L17.3103887,34 C16.0394069,34 15,33.0592946 15,31.6898198 L15,18.3101802 C15,16.9407054 16.0394069,16 17.3103887,16 L17.3103887,16 Z M28.8865291,18 C28.398665,18 28,18.4094472 28,18.9104594 L28,21.0895406 C28,21.5903452 28.398665,22 28.8865291,22 L31.1130663,22 C31.6009304,22 32,21.5903452 32,21.0895406 L32,18.9104594 C32,18.4094472 31.6009304,18 31.1130663,18 L28.8865291,18 L28.8865291,18 Z M30.9996295,24 L29.4115078,24 C29.5617606,24.4706196 29.6430935,24.9691422 29.6430935,25.4849044 C29.6430935,28.3640726 27.1315936,30.6979761 24.0340894,30.6979761 C20.9367705,30.6979761 18.4256412,28.3640726 18.4256412,25.4849044 C18.4256412,24.9687868 18.5067888,24.4704419 18.6572268,24 L17,24 L17,31.3118432 C17,31.6902228 17.3227377,32 17.7173597,32 L30.2826403,32 C30.6772623,32 31,31.6904006 31,31.3118432 L31,24 L30.9996295,24 Z M24.4998211,22 C22.5670467,22 21,23.5669023 21,25.5 C21,27.4330977 22.5670467,29 24.4998211,29 C26.4327744,29 28,27.4330977 28,25.5 C28,23.5669023 26.4329533,22 24.4998211,22 Z" id="Shape"></path>
                </g>
            </g>
        </g>
    </g>
</svg>