<?xml version="1.0" encoding="UTF-8"?>
<svg width="20px" height="19px" viewBox="0 0 20 19" version="1.1" xmlns="http://www.w3.org/2000/svg" xmlns:xlink="http://www.w3.org/1999/xlink">
    <!-- Generator: Sketch 53 (72520) - https://sketchapp.com -->
    <title>Shape</title>
    <desc>Created with Sketch.</desc>
    <g id="Symbols" stroke="none" stroke-width="1" fill="none" fill-rule="evenodd">
        <g id="Footer" transform="translate(-864.000000, -388.000000)" fill="#FF5900" fill-rule="nonzero">
            <g id="Social" transform="translate(440.000000, 373.000000)">
                <g id="In" transform="translate(410.000000, 0.000000)">
                    <path d="M30.2500123,15 L17.7499877,15 C15.6787573,15 14,16.5948195 14,18.5624883 L14,30.4375117 C14,32.4052179 15.6787573,34 17.7499877,34 L30.2500123,34 C32.321282,34 34,32.4051805 34,30.4375117 L34,18.5624883 C34.0000393,16.5948195 32.321282,15 30.2500123,15 Z M21.5000147,29.1015832 L19.0000098,29.1015832 L19.0000098,20.7890856 L21.5000147,20.7890856 L21.5000147,29.1015832 Z M20.3275119,20.2796356 C19.6800238,20.2796356 19.1562675,19.7808715 19.1562675,19.1657578 C19.1562675,18.5506441 19.6812823,18.0518801 20.3275119,18.0518801 C20.975,18.0530757 21.5000147,18.5518024 21.5000147,19.1657578 C21.5000147,19.7808715 20.975,20.2796356 20.3275119,20.2796356 Z M30.2500123,29.1015832 L27.7500074,29.1015832 L27.7500074,23.9620604 C27.7500074,23.3599865 27.5687752,22.9384526 26.7900039,22.9384526 C25.4987641,22.9384526 25.2500025,23.9620604 25.2500025,23.9620604 L25.2500025,29.1015832 L22.7499975,29.1015832 L22.7499975,20.7890856 L25.2500025,20.7890856 L25.2500025,21.5835062 C25.6075112,21.3234569 26.4999853,20.7902438 27.7500074,20.7902438 C28.5600066,20.7902438 30.2500123,21.2510093 30.2500123,24.0345081 L30.2500123,29.1015832 Z" id="Shape"></path>
                </g>
            </g>
        </g>
    </g>
</svg>