<?xml version="1.0" encoding="UTF-8"?>
<svg width="19px" height="23px" viewBox="0 0 19 23" version="1.1" xmlns="http://www.w3.org/2000/svg" xmlns:xlink="http://www.w3.org/1999/xlink">
    <!-- Generator: Sketch 53 (72520) - https://sketchapp.com -->
    <title>Shape</title>
    <desc>Created with Sketch.</desc>
    <g id="Symbols" stroke="none" stroke-width="1" fill="none" fill-rule="evenodd">
        <g id="Footer" transform="translate(-455.000000, -386.000000)" fill="#FF5900" fill-rule="nonzero">
            <g id="Social" transform="translate(440.000000, 373.000000)">
                <g id="Pin">
                    <path d="M24.9095475,13.8786199 C18.564056,13.8786199 15.3646484,18.183056 15.3646484,21.772789 C15.3646484,23.94618 16.2342493,25.8794597 18.099142,26.6002444 C18.4052758,26.7184981 18.6795108,26.6045241 18.7685419,26.2842254 C18.8299591,26.0623588 18.9758845,25.503075 19.0408724,25.2699462 C19.1303797,24.9530262 19.0953861,24.8419803 18.8487651,24.5658296 C18.3110076,23.9655511 17.9672617,23.1884551 17.9672617,22.0876818 C17.9672617,18.8941551 20.4925084,16.0353429 24.5431868,16.0353429 C28.1291894,16.0353429 30.0997769,18.1089503 30.0997769,20.878115 C30.0997769,24.5216816 28.3955686,27.5967292 25.865799,27.5967292 C24.4684387,27.5967292 23.4229181,26.503389 23.7580941,25.1625042 C24.1594483,23.5616865 24.9366854,21.8338304 24.9366854,20.6785477 C24.9366854,19.6442217 24.3503654,18.7813073 23.1358284,18.7813073 C21.7075215,18.7813073 20.5603529,20.1794043 20.5603529,22.052093 C20.5603529,23.2449917 20.9862265,24.05182 20.9862265,24.05182 C20.9862265,24.05182 19.5243543,29.9115743 19.2686874,30.9377915 C18.7580676,32.9812161 19.1920349,35.4866186 19.2286948,35.739569 C19.2498813,35.8895823 19.4534151,35.925171 19.5457789,35.8120979 C19.6778973,35.6492456 21.3787728,33.6623576 21.9569991,31.676821 C22.1205402,31.114609 22.8958728,28.2035398 22.8958728,28.2035398 C23.3600726,29.0407763 24.71625,29.7784544 26.1586019,29.7784544 C30.4516165,29.7784544 33.3646484,26.0751978 33.3646484,21.1177759 C33.3648865,17.3694703 30.0090794,13.8786199 24.9095475,13.8786199 Z" id="Shape"></path>
                </g>
            </g>
        </g>
    </g>
</svg>