<?xml version="1.0" encoding="UTF-8"?>
<svg width="22px" height="22px" viewBox="0 0 22 22" version="1.1" xmlns="http://www.w3.org/2000/svg" xmlns:xlink="http://www.w3.org/1999/xlink">
    <!-- Generator: Sketch 53 (72520) - https://sketchapp.com -->
    <title>Serch</title>
    <desc>Created with Sketch.</desc>
    <g id="Symbols" stroke="none" stroke-width="1" fill="none" fill-rule="evenodd">
        <g id="Header" transform="translate(-1221.000000, -18.000000)" fill="#E14844" fill-rule="nonzero">
            <g transform="translate(0.000000, -164.000000)" id="Header_1440">
                <g>
                    <g>
                        <g id="Header_">
                            <g id="Header">
                                <g id="Group-2">
                                    <g id="menu" transform="translate(139.000000, 180.000000)">
                                        <g id="Search" transform="translate(1082.000000, 0.000000)">
                                            <g id="Serch" transform="translate(0.000000, 2.000000)">
                                                <path d="M19.3533727,15.206545 C22.827392,11.732455 22.8273213,6.07965756 19.3533727,2.60556752 C15.8792827,-0.868522508 10.226556,-0.868522508 6.75253673,2.60556752 C3.80524412,5.55286013 3.35887756,9.93623633 5.41223448,13.3591817 C5.41223448,13.3591817 5.55972644,13.6066286 5.36052387,13.8056897 C4.224093,14.9420498 0.814588175,18.3516254 0.814588175,18.3516254 C-0.0902414072,19.2563842 -0.305643336,20.5215611 0.496755377,21.3241013 L0.634909718,21.4621141 C1.43730843,22.2646543 2.70255602,22.0493232 3.60731486,21.1444936 C3.60731486,21.1444936 7.00960425,17.7421334 8.14370072,16.6081077 C8.35245313,16.3993553 8.59982933,16.5468473 8.59982933,16.5468473 C12.0227039,18.6001334 16.4060801,18.1538376 19.3533727,15.206545 Z M7.39337193,14.5656857 C4.2726876,11.4449783 4.2727736,6.3672929 7.39345792,3.24658551 C10.5141423,0.12596412 15.5917901,0.125878122 18.7123884,3.24658551 C21.8330728,6.3672069 21.8330728,11.4449783 18.7123884,14.5656857 C15.5917041,17.6862211 10.5141423,17.6862211 7.39337193,14.5656857 Z" id="Shape"></path>
                                                <path d="M18.999117,6.44714368 C18.9490678,5.52086676 18.6059972,4.64981783 18.0330814,3.99441154 C17.6274234,3.53040148 17.1240569,3.19324936 16.5774645,3.01920597 C16.335185,2.94210867 16.0841771,3.10426656 16.0167752,3.38139688 C15.9493734,3.65848759 16.091139,3.94564136 16.3334185,4.02273866 C16.7292053,4.14868538 17.0942698,4.39356637 17.3891962,4.73091658 C17.804968,5.20649519 18.0539323,5.83876437 18.0902656,6.51128578 C18.1051938,6.78746526 18.3056329,7.00001768 18.5443103,7.00001768 C18.5537313,7.00001768 18.5632563,6.99970074 18.5728158,6.99898761 C18.823789,6.98135744 19.014634,6.73425782 18.999117,6.44714368 Z" id="Path"></path>
                                            </g>
                                        </g>
                                    </g>
                                </g>
                            </g>
                        </g>
                    </g>
                </g>
            </g>
        </g>
    </g>
</svg>