<?xml version="1.0" encoding="UTF-8"?>
<svg width="21px" height="21px" viewBox="0 0 21 21" version="1.1" xmlns="http://www.w3.org/2000/svg" xmlns:xlink="http://www.w3.org/1999/xlink">
    <!-- Generator: Sketch 53 (72520) - https://sketchapp.com -->
    <title>Shape</title>
    <desc>Created with Sketch.</desc>
    <g id="Symbols" stroke="none" stroke-width="1" fill="none" fill-rule="evenodd">
        <g id="Footer" transform="translate(-760.000000, -387.000000)" fill="#FF5900" fill-rule="nonzero">
            <g id="Social" transform="translate(440.000000, 373.000000)">
                <g id="Tw" transform="translate(307.000000, 0.000000)">
                    <path d="M23.5,14 C17.7103239,14 13,18.7103239 13,24.5 C13,30.2892532 17.7103239,35 23.5,35 C29.2892532,35 34,30.2892532 34,24.5 C34,18.7103239 29.2900991,14 23.5,14 Z M27.7728105,21.4895055 C27.7775504,21.598206 27.7801357,21.7077902 27.7801357,21.8173744 C27.7801357,25.1539481 25.304212,29 20.7742109,29 C19.3837122,29 18.089303,28.5833149 17,27.8665989 C17.1926101,27.8900181 17.3886675,27.9019487 17.5873101,27.9019487 C18.7412474,27.9019487 19.8025423,27.4980779 20.6453733,26.8211303 C19.5681353,26.8008042 18.6585156,26.070832 18.3452548,25.0673413 C18.4952063,25.0965048 18.6498977,25.112854 18.8080362,25.112854 C19.0325326,25.112854 19.2505655,25.0828068 19.4569643,25.0249216 C18.3306043,24.7933808 17.4821717,23.7730988 17.4821717,22.549114 C17.4821717,22.5385091 17.4821717,22.5274623 17.4826026,22.5172993 C17.8143919,22.7059785 18.1940106,22.8199814 18.5973284,22.8327957 C17.937197,22.3807609 17.5024238,21.6074853 17.5024238,20.7316955 C17.5024238,20.2686138 17.6235053,19.8346958 17.8355058,19.461756 C19.0493375,20.9897486 20.864268,21.994565 22.9101584,22.1006142 C22.8679306,21.9154699 22.8468168,21.7232557 22.8468168,21.5248553 C22.8468168,20.1307499 23.9490466,19 25.308521,19 C26.0169126,19 26.6559302,19.306659 27.1057848,19.7971367 C27.6672412,19.6840175 28.1929333,19.4745703 28.6699343,19.1842605 C28.4846494,19.7741593 28.095551,20.2686138 27.585802,20.5814591 C28.0843477,20.5204808 28.560056,20.385268 29,20.1842163 C28.6716579,20.6897176 28.2541204,21.1346825 27.7728105,21.4895055 Z" id="Shape"></path>
                </g>
            </g>
        </g>
    </g>
</svg>