<?xml version="1.0" encoding="UTF-8"?>
<svg width="19px" height="16px" viewBox="0 0 19 16" version="1.1" xmlns="http://www.w3.org/2000/svg" xmlns:xlink="http://www.w3.org/1999/xlink">
    <!-- Generator: Sketch 53 (72520) - https://sketchapp.com -->
    <title>Shape</title>
    <desc>Created with Sketch.</desc>
    <g id="Symbols" stroke="none" stroke-width="1" fill="none" fill-rule="evenodd">
        <g id="Footer" transform="translate(-557.000000, -390.000000)" fill="#FF5900" fill-rule="nonzero">
            <g id="Social" transform="translate(440.000000, 373.000000)">
                <g id="Youtube" transform="translate(102.000000, 1.000000)">
                    <path d="M33.6716793,18.5737914 C33.4390703,17.3529862 32.6125825,16.4523107 31.61762,16.3179558 C29.261522,16.0001958 26.8767892,15.9985371 24.5030396,16.0001958 C22.1288978,15.9985371 19.7437727,16.0001958 17.3876747,16.3179558 C16.3933006,16.4523107 15.5674013,17.3529862 15.3347922,18.5737914 C15.0037265,20.3123487 15,22.2101414 15,24.0001185 C15,25.7900956 15,27.6876514 15.3310658,29.4259717 C15.5632826,30.6465399 16.389378,31.5472154 17.3843406,31.6818073 C19.7402424,31.9998043 22.1251713,32.001463 24.4993132,31.9998043 C26.8738473,32.001463 29.2581878,31.9998043 31.6138936,31.6818073 C32.6082677,31.5474524 33.4349515,30.6467769 33.6675606,29.4259717 C33.9988225,27.6874144 33.9999993,25.7898586 33.9999993,24.0001185 C33.9999993,22.2101414 34.0027451,20.3123487 33.6716793,18.5737914 Z M22,28 C22,25.324094 22,22.6761557 22,20 C24.0001948,21.3377033 25.987142,22.666417 28,24.0123607 C25.9933762,25.3463183 24.0054549,26.6670412 22,28 Z" id="Shape"></path>
                </g>
            </g>
        </g>
    </g>
</svg>